<svg id="Capa_1" enable-background="new 0 0 512 512" height="512" viewBox="0 0 512 512" width="512" xmlns="http://www.w3.org/2000/svg"><g id="XMLID_1857_"><g id="XMLID_460_"><path id="XMLID_461_" d="m320.822 118h-56.485c-5.522 0-10 4.478-10 10 0 5.523 4.478 10 10 10h56.485c5.522 0 10-4.477 10-10 0-5.522-4.478-10-10-10z"/><path id="XMLID_1066_" d="m511.999 139.423c0-5.522-4.478-10-10-10s-10 4.478-10 10v74.435l-62.609 62.609c-3.905 3.905-3.905 10.237 0 14.143 1.953 1.952 4.512 2.929 7.071 2.929 2.56 0 5.118-.977 7.071-2.929l48.467-48.467v57.048l-116.81 116.809h-57.048l83.391-83.391c3.905-3.905 3.905-10.237 0-14.143-3.906-3.904-10.236-3.904-14.143 0l-83.391 83.391v-198.201l12.965 5.423c1.261.527 2.567.777 3.854.777 3.911 0 7.626-2.311 9.229-6.145 2.131-5.095-.271-10.953-5.367-13.084l-58.89-24.632c-5.092-2.129-10.953.273-13.084 5.367-2.131 5.095.271 10.953 5.367 13.084l25.925 10.844v220.71h-76.097v-43.749c0-33.53-21.29-63.426-52.977-74.392-23.636-8.18-39.517-30.479-39.517-55.491v-20.458c13.303 15.029 32.098 25.075 53.277 26.993.304.027.605.041.906.041 3.87 0 7.43-2.245 9.075-5.809 1.772-3.839.938-8.379-2.084-11.337-11.821-11.573-18.332-27.052-18.332-43.585v-24.36h30.154c4.283 0 8.234-1.405 11.454-3.755l15.104 6.317c1.261.527 2.567.777 3.855.777 3.911 0 7.626-2.311 9.229-6.145 2.131-5.095-.271-10.953-5.367-13.084l-14.779-6.181v-25.712l23.778-9.946c5.096-2.131 7.498-7.989 5.367-13.084-2.131-5.097-7.989-7.5-13.084-5.367l-24.099 10.081c-3.22-2.35-7.172-3.754-11.454-3.754h-92.408v-74h188v42.562l-19.302 8.073c-5.096 2.131-7.498 7.989-5.367 13.084 1.604 3.835 5.318 6.145 9.23 6.145 1.286 0 2.594-.25 3.854-.777l52.267-21.861c5.096-2.131 7.498-7.989 5.367-13.084-2.131-5.097-7.989-7.5-13.084-5.367l-12.965 5.423v-34.198h188v29.417c0 5.522 4.478 10 10 10s10-4.478 10-10v-39.417c0-5.523-4.478-10-10-10h-416c-5.522 0-10 4.477-10 10v85.869c-43.295 8.73-75.998 47.062-75.998 92.891 0 3.688 2.029 7.076 5.28 8.816 1.479.791 3.101 1.184 4.719 1.184 1.939 0 3.873-.563 5.546-1.678 8.319-5.543 17.614-9.208 27.345-10.857v29.838c-18.961 48.277-28.58 99.05-28.58 150.947v92.258c0 29.077 23.655 52.732 52.731 52.732h88.128c29.077 0 52.732-23.655 52.732-52.731v-23.269h294.097c5.522 0 10-4.478 10-10v-286.577zm-449.109 68.231v-22.434h32.519v22.435h-32.519zm53.189-28.487 17.48-15.313h4.692v24.36c0 11.411 2.335 22.443 6.781 32.565-14.947-8.837-25.755-23.881-28.953-41.612zm71.823-35.313h-23.77v-29.854h23.77zm-93.142-29.854h49.371v29.854h-14.333c-2.424 0-4.766.881-6.59 2.479l-21.561 18.888h-46.906c-11.272 0-22.321 2.074-32.683 6.082 7.883-32.833 37.487-57.303 72.702-57.303zm93.142 345.269c0 18.048-14.683 32.731-32.732 32.731h-88.129c-18.048 0-32.731-14.684-32.731-32.731v-92.258c0-47.854 8.612-94.7 25.562-139.356h35.537v14.714c0 33.53 21.289 63.426 52.976 74.392 23.637 8.18 39.518 30.479 39.518 55.491v87.017zm215.572-43.269 88.524-88.524v88.524z"/><path id="XMLID_1083_" d="m417.332 128.927c0-5.523-4.478-10-10-10s-10 4.477-10 10v13c0 5.522 4.478 10 10 10s10-4.478 10-10z"/><path id="XMLID_1084_" d="m407.332 188.283c-5.522 0-10 4.477-10 10v12.644c0 5.522 4.478 10 10 10s10-4.478 10-10v-12.644c0-5.522-4.478-10-10-10z"/><path id="XMLID_1085_" d="m435.332 159.927c-5.522 0-10 4.477-10 10 0 5.522 4.478 10 10 10h13c5.522 0 10-4.478 10-10 0-5.523-4.478-10-10-10z"/><path id="XMLID_1086_" d="m366.332 159.927c-5.522 0-10 4.477-10 10 0 5.522 4.478 10 10 10h13c5.522 0 10-4.478 10-10 0-5.523-4.478-10-10-10z"/><path id="XMLID_1087_" d="m502 84.42c-2.63 0-5.21 1.07-7.07 2.93s-2.93 4.44-2.93 7.07c0 2.64 1.069 5.21 2.93 7.08 1.86 1.859 4.44 2.92 7.07 2.92s5.21-1.061 7.069-2.92c1.86-1.87 2.931-4.44 2.931-7.08 0-2.63-1.07-5.21-2.931-7.07-1.859-1.86-4.44-2.93-7.069-2.93z"/></g></g></svg>