<svg id="Capa_1" enable-background="new 0 0 512 512" height="512" viewBox="0 0 512 512" width="512" xmlns="http://www.w3.org/2000/svg"><path d="m433.981 396.601-101.937-25.983-5.157-39.678c16.892-16.79 28.446-39.492 31.661-64.94h32.17c21.109 0 38.282-17.173 38.282-38.281v-41c0-12.213-5.755-23.1-14.689-30.114-.931-86.511-71.584-156.605-158.311-156.605s-157.38 70.094-158.311 156.605c-8.934 7.015-14.689 17.901-14.689 30.114v41c0 21.108 17.173 38.281 38.281 38.281h32.17c3.215 25.447 14.769 48.149 31.66 64.939l-5.156 39.679-101.936 25.983c-45.937 11.708-78.019 52.994-78.019 100.399v15h512v-15c0-47.405-32.082-88.691-78.019-100.399zm-93.993 7.001-22.352 67.493-38.805-33.169 43.66-38.783zm-83.988 54.274 28.223 24.124h-56.446zm73.463-206.374c0 43.651-32.955 79.165-73.463 79.165-21.186 0-40.294-9.726-53.714-25.238h53.714v-30h-70.025c-2.227-7.553-3.438-15.589-3.438-23.927v-73.064h146.926zm-145.746-103.064c6.168-34.313 36.221-60.438 72.283-60.438s66.115 26.125 72.283 60.438zm215.283 79.281c0 4.566-3.715 8.281-8.281 8.281h-31.256v-57.562h31.256c4.566 0 8.281 3.715 8.281 8.281zm-143-197.719c67.434 0 122.886 52.281 127.955 118.438h-24.492-.817c-6.425-50.924-50.007-90.438-102.646-90.438s-96.221 39.514-102.646 90.438h-.817-24.492c5.069-66.157 60.521-118.438 127.955-118.438zm-143 197.719v-41c0-4.566 3.715-8.281 8.281-8.281h31.256v57.562h-31.256c-4.566 0-8.281-3.715-8.281-8.281zm143 132.948c15.413 0 30.047-3.58 43.202-9.985l3.382 26.018-46.584 41.38-46.583-41.381 3.381-26.018c13.155 6.405 27.789 9.986 43.202 9.986zm-66.491 38.475 43.66 38.783-38.805 33.169-22.352-67.493zm-104.08 26.529 57.442-14.641 23.503 70.97h-134.839c5.623-27.111 26.22-49.275 53.894-56.329zm260.197 56.329 23.504-70.97 57.442 14.641c27.674 7.054 48.271 29.218 53.894 56.329z"/></svg>