<svg id="Capa_1" enable-background="new 0 0 511.954 511.954" height="512" viewBox="0 0 511.954 511.954" width="512" xmlns="http://www.w3.org/2000/svg" xmlns:xlink="http://www.w3.org/1999/xlink"><linearGradient id="SVGID_1_" gradientUnits="userSpaceOnUse" x1="137.024" x2="471.973" y1="374.432" y2="39.483"><stop offset="0" stop-color="#a93aff"/><stop offset="1" stop-color="#ff81ff"/></linearGradient><g><g><path d="m375.954 120.002c-8.284 0-15 6.716-15 15v60c0 8.284 6.716 15 15 15s15-6.716 15-15v-60c0-8.285-6.716-15-15-15zm0-60c-8.284 0-15 6.716-15 15s6.716 15 15 15 15-6.716 15-15-6.716-15-15-15zm0-60c-74.439 0-135 60.561-135 135 0 31.011 10.387 60.428 29.513 84.274l-25.12 25.119c-4.29 4.29-5.574 10.742-3.252 16.347s7.792 9.26 13.858 9.26h120c74.99 0 136-60.561 136-135s-61.009-135-135.999-135zm0 240h-83.786l9.54-9.54c5.854-5.854 5.858-15.356 0-21.213-19.832-19.832-30.754-46.2-30.754-74.247 0-57.897 47.103-105 105-105 58.448 0 106 47.103 106 105s-47.552 105-106 105zm-15.442 103.359c-17.544-17.544-46.094-17.546-63.64 0l-21.213 21.214c-5.957 5.956-15.465 5.748-21.165.049l-107.114-108.115c-5.863-5.864-5.863-15.35 0-21.213l21.214-21.213c17.545-17.546 17.545-46.094 0-63.639l-53.034-53.034c-17.544-17.545-46.094-17.546-63.639 0l-21.213 21.213c-40.939 40.939-40.939 107.553-.025 148.468l213.157 214.157c40.938 40.938 107.552 40.94 148.492 0l21.213-21.213c17.546-17.545 17.546-46.094 0-63.639zm31.82 95.46-21.213 21.213c-29.243 29.242-76.825 29.241-106.042.025l-213.156-214.156c-29.242-29.243-29.242-76.824 0-106.066l21.213-21.213c5.848-5.848 15.365-5.849 21.213 0l53.033 53.033c5.848 5.849 5.848 15.365 0 21.213l-21.213 21.213c-17.66 17.66-17.498 46.142-.049 63.59l107.115 108.115c17.586 17.586 46.052 17.589 63.64 0l21.213-21.213c5.85-5.849 15.366-5.849 21.214 0l53.032 53.033c5.848 5.849 5.848 15.365 0 21.213z" fill="url(#SVGID_1_)"/></g></g></svg>